<?xml version="1.0" encoding="UTF-8" standalone="no"?>
<!-- Created with Inkscape (http://www.inkscape.org/) -->

<svg
   xmlns:dc="http://purl.org/dc/elements/1.1/"
   xmlns:cc="http://creativecommons.org/ns#"
   xmlns:rdf="http://www.w3.org/1999/02/22-rdf-syntax-ns#"
   xmlns:svg="http://www.w3.org/2000/svg"
   xmlns="http://www.w3.org/2000/svg"
   xmlns:sodipodi="http://sodipodi.sourceforge.net/DTD/sodipodi-0.dtd"
   xmlns:inkscape="http://www.inkscape.org/namespaces/inkscape"
   width="48"
   height="48"
   id="svg2"
   version="1.1"
   inkscape:version="0.47 r22583"
   sodipodi:docname="stocktracker_v2.svg"
   inkscape:export-filename="/home/bastian/Dropbox/stocktracker/data/images/48x48/stocktracker_48x48.png"
   inkscape:export-xdpi="89.766197"
   inkscape:export-ydpi="89.766197">
  <defs
     id="defs4">
    <marker
       inkscape:stockid="Arrow1Lend"
       orient="auto"
       refY="0.0"
       refX="0.0"
       id="Arrow1Lend"
       style="overflow:visible;">
      <path
         id="path3610"
         d="M 0.0,0.0 L 5.0,-5.0 L -12.5,0.0 L 5.0,5.0 L 0.0,0.0 z "
         style="fill-rule:evenodd;stroke:#000000;stroke-width:1.0pt;marker-start:none;"
         transform="scale(0.8) rotate(180) translate(12.5,0)" />
    </marker>
    <inkscape:perspective
       sodipodi:type="inkscape:persp3d"
       inkscape:vp_x="0 : 526.18109 : 1"
       inkscape:vp_y="0 : 1000 : 0"
       inkscape:vp_z="744.09448 : 526.18109 : 1"
       inkscape:persp3d-origin="372.04724 : 350.78739 : 1"
       id="perspective10" />
    <filter
       id="filter2965"
       inkscape:label="Drop shadow"
       width="1.5"
       height="1.5"
       x="-.25"
       y="-.25">
      <feGaussianBlur
         id="feGaussianBlur2967"
         in="SourceAlpha"
         stdDeviation="2.000000"
         result="blur" />
      <feColorMatrix
         id="feColorMatrix2969"
         result="bluralpha"
         type="matrix"
         values="1 0 0 0 0 0 1 0 0 0 0 0 1 0 0 0 0 0 0.500000 0 " />
      <feOffset
         id="feOffset2971"
         in="bluralpha"
         dx="2.000000"
         dy="2.000000"
         result="offsetBlur" />
      <feMerge
         id="feMerge2973">
        <feMergeNode
           id="feMergeNode2975"
           in="offsetBlur" />
        <feMergeNode
           id="feMergeNode2977"
           in="SourceGraphic" />
      </feMerge>
    </filter>
  </defs>
  <sodipodi:namedview
     id="base"
     pagecolor="#ffffff"
     bordercolor="#666666"
     borderopacity="1.0"
     inkscape:pageopacity="0.0"
     inkscape:pageshadow="2"
     inkscape:zoom="4"
     inkscape:cx="39.757855"
     inkscape:cy="-23.794883"
     inkscape:document-units="px"
     inkscape:current-layer="layer1"
     showgrid="false"
     inkscape:window-width="1280"
     inkscape:window-height="1000"
     inkscape:window-x="0"
     inkscape:window-y="24"
     inkscape:window-maximized="1" />
  <metadata
     id="metadata7">
    <rdf:RDF>
      <cc:Work
         rdf:about="">
        <dc:format>image/svg+xml</dc:format>
        <dc:type
           rdf:resource="http://purl.org/dc/dcmitype/StillImage" />
        <dc:title></dc:title>
      </cc:Work>
    </rdf:RDF>
  </metadata>
  <g
     inkscape:label="Layer 1"
     inkscape:groupmode="layer"
     id="layer1"
     transform="translate(0,-1004.3622)">
    <rect
       style="fill:#f0f0f0;fill-opacity:1;stroke:none"
       id="rect3592"
       width="47.5"
       height="47.5"
       x="0"
       y="1004.2372"
       rx="7"
       ry="7" />
    <path
       style="fill:#7cd854;fill-opacity:1;stroke:none"
       d="m 46.621011,1013.5169 0.438517,2.7175 -0.05953,12.3744 -8.908228,-0.1326 0.170631,-1.1366 c 2.5719,-4.0339 5.823645,-9.7654 8.358608,-13.8227 z"
       id="path3773"
       sodipodi:nodetypes="cccccc" />
    <path
       sodipodi:type="star"
       style="fill:#000000;fill-opacity:1;stroke:none"
       id="path4236"
       sodipodi:sides="3"
       sodipodi:cx="44.0625"
       sodipodi:cy="26.5"
       sodipodi:r1="1.4252193"
       sodipodi:r2="0.71260965"
       sodipodi:arg1="-0.78539816"
       sodipodi:arg2="0.26179939"
       inkscape:flatsided="false"
       inkscape:rounded="0"
       inkscape:randomized="0"
       d="m 45.070282,25.492218 -0.319454,1.192219 -0.319454,1.192219 -0.872765,-0.872765 -0.872765,-0.872765 1.192219,-0.319454 1.192219,-0.319454 z"
       transform="matrix(-1.5619375,-1.4633636,1.4633636,-1.5619375,75.634089,1119.8044)" />
    <path
       style="fill:#7cd854;fill-opacity:1;stroke:none"
       d="m 22.066452,23.43425 c 0.344875,-0.898729 3.47299,-12.956535 3.56217,-12.956535 0.08448,0 3.418119,12.502347 4.329443,12.89299 0.69182,0.296552 -1.969483,0.220971 -4.33196,0.220971 -2.714944,0 -3.656345,0.09455 -3.559653,-0.157426 z"
       id="path3783"
       transform="translate(0,1004.3622)"
       sodipodi:nodetypes="csssc" />
    <path
       style="fill:#7cd854;fill-opacity:1;stroke:none"
       d="m 0.0074403,17.625462 c 0.00767582,-3.281417 0.0439033,-6.660062 0.0805055,-6.562835 0.03660218,0.09723 0.75124626,3.41621 1.588098,6.430253 0.8368516,3.014042 1.5617052,5.619289 1.6107857,5.789436 0.080563,0.27929 -0.075157,0.30936 -1.602054,0.30936 l -1.69129127,0 0.01395607,-5.966214 z"
       id="path3785"
       transform="translate(0,1004.3622)"
       sodipodi:nodetypes="csssccc" />
    <path
       style="fill:#d85e54;fill-opacity:1;stroke:none"
       d="m 4.2126854,24.35278 16.5612756,-0.13794 -1.120016,3.177539 -5.78349,2.099674 C 12.236992,32.437854 10.40897,36.506636 8.6499146,39.380258 7.2392978,34.957098 5.4833837,28.818705 4.2126854,24.35278 z"
       id="path3787"
       transform="translate(0,1004.3622)"
       sodipodi:nodetypes="cccccc" />
    <path
       style="fill:#d85e54;fill-opacity:1;stroke:none"
       d="m 30.425065,24.188949 6.968034,0.150889 c -1.239798,2.60386 -2.459625,3.549967 -4.18111,6.308958 l -2.786924,-6.459847 z"
       id="path3789"
       transform="translate(0,1004.3622)"
       sodipodi:nodetypes="cccc" />
    <path
       style="fill:none;stroke:#000000;stroke-width:2;stroke-linecap:butt;stroke-linejoin:miter;stroke-opacity:1;stroke-miterlimit:4;stroke-dasharray:none"
       d="m 0.0214466,1015.7827 c 1.4633883,-0.1288 1.6046896,2.1892 2.1663994,4.3295 0.5602596,2.1347 5.5982725,23.2282 6.437154,24.375 0.8388815,1.1468 4.225749,-9.2238 5.5,-10.25 1.274251,-1.0262 3.346067,0.074 5.75,-2.125 2.403933,-2.1994 4.078344,-17.5793 5.75,-18.125 1.671656,-0.5457 5.639124,21.2723 7.5,21.875 1.860876,0.6027 12.287151,-21.2254 12.287151,-21.2254"
       id="path2981"
       sodipodi:nodetypes="czzzzzzc" />
    <path
       style="fill:none;stroke:#666666;stroke-width:1px;stroke-linecap:butt;stroke-linejoin:miter;stroke-opacity:1"
       d="m 0.05063961,1028.4973 47.45165639,0"
       id="path2979" />
  </g>
</svg>
