<?xml version="1.0" encoding="UTF-8" standalone="no"?>
<!-- Created with Inkscape (http://www.inkscape.org/) -->

<svg
   xmlns:dc="http://purl.org/dc/elements/1.1/"
   xmlns:cc="http://creativecommons.org/ns#"
   xmlns:rdf="http://www.w3.org/1999/02/22-rdf-syntax-ns#"
   xmlns:svg="http://www.w3.org/2000/svg"
   xmlns="http://www.w3.org/2000/svg"
   xmlns:xlink="http://www.w3.org/1999/xlink"
   xmlns:sodipodi="http://sodipodi.sourceforge.net/DTD/sodipodi-0.dtd"
   xmlns:inkscape="http://www.inkscape.org/namespaces/inkscape"
   width="48"
   height="48"
   id="svg2"
   version="1.1"
   inkscape:version="0.47 r22583"
   sodipodi:docname="plugin.svg"
   inkscape:export-filename="/home/bastian/Dropbox/UNI/workspace/stocktracker/data/images/48x48/plugin.png"
   inkscape:export-xdpi="78"
   inkscape:export-ydpi="78">
  <defs
     id="defs4">
    <linearGradient
       id="linearGradient4432">
      <stop
         style="stop-color:#7cd854;stop-opacity:1"
         offset="0"
         id="stop4434" />
      <stop
         style="stop-color:#3c9814;stop-opacity:1;"
         offset="1"
         id="stop4436" />
    </linearGradient>
    <linearGradient
       id="linearGradient4416">
      <stop
         id="stop4424"
         offset="0"
         style="stop-color:#3e6c2a;stop-opacity:0.49803922;" />
      <stop
         style="stop-color:#365e24;stop-opacity:0.43529412;"
         offset="0.125"
         id="stop4430" />
      <stop
         style="stop-color:#2e511f;stop-opacity:0.37254902;"
         offset="0.25"
         id="stop4428" />
      <stop
         style="stop-color:#1f3615;stop-opacity:0.24705882;"
         offset="0.5"
         id="stop4426" />
      <stop
         style="stop-color:#000000;stop-opacity:0;"
         offset="1"
         id="stop4420" />
    </linearGradient>
    <inkscape:perspective
       sodipodi:type="inkscape:persp3d"
       inkscape:vp_x="0 : 526.18109 : 1"
       inkscape:vp_y="0 : 1000 : 0"
       inkscape:vp_z="744.09448 : 526.18109 : 1"
       inkscape:persp3d-origin="372.04724 : 350.78739 : 1"
       id="perspective10" />
    <linearGradient
       inkscape:collect="always"
       xlink:href="#linearGradient4432"
       id="linearGradient4440"
       x1="25.057138"
       y1="1006.0224"
       x2="25.057138"
       y2="1047.9316"
       gradientUnits="userSpaceOnUse" />
    <filter
       id="filter4518"
       inkscape:label="Drop shadow"
       width="1.5"
       height="1.5"
       x="-.25"
       y="-.25">
      <feGaussianBlur
         id="feGaussianBlur4520"
         in="SourceAlpha"
         stdDeviation="0.700000"
         result="blur" />
      <feColorMatrix
         id="feColorMatrix4522"
         result="bluralpha"
         type="matrix"
         values="1 0 0 0 0 0 1 0 0 0 0 0 1 0 0 0 0 0 0.600000 0 " />
      <feOffset
         id="feOffset4524"
         in="bluralpha"
         dx="0.000000"
         dy="0.000000"
         result="offsetBlur" />
      <feMerge
         id="feMerge4526">
        <feMergeNode
           id="feMergeNode4528"
           in="offsetBlur" />
        <feMergeNode
           id="feMergeNode4530"
           in="SourceGraphic" />
      </feMerge>
    </filter>
  </defs>
  <sodipodi:namedview
     id="base"
     pagecolor="#ffffff"
     bordercolor="#666666"
     borderopacity="1.0"
     inkscape:pageopacity="0.0"
     inkscape:pageshadow="2"
     inkscape:zoom="5.6568542"
     inkscape:cx="44.517927"
     inkscape:cy="25.862579"
     inkscape:document-units="px"
     inkscape:current-layer="layer1"
     showgrid="false"
     inkscape:window-width="1280"
     inkscape:window-height="942"
     inkscape:window-x="0"
     inkscape:window-y="0"
     inkscape:window-maximized="1" />
  <metadata
     id="metadata7">
    <rdf:RDF>
      <cc:Work
         rdf:about="">
        <dc:format>image/svg+xml</dc:format>
        <dc:type
           rdf:resource="http://purl.org/dc/dcmitype/StillImage" />
        <dc:title></dc:title>
      </cc:Work>
    </rdf:RDF>
  </metadata>
  <g
     inkscape:label="Layer 1"
     inkscape:groupmode="layer"
     id="layer1"
     transform="translate(0,-1004.3622)">
    <path
       id="path4444"
       d="m 24.059358,1006.5582 c -7.72162,-0.1514 -1.338466,7.1883 -3.5625,8.5313 l -8.59375,0 c -1.662,0 -3.000099,1.3381 -2.999999,3 l 0,8.2812 c 0.01,0.034 0.02325,0.058 0.03125,0.094 0.7328,3.3259 8.815549,-4.1781 8.656249,3.9375 -0.1581,8.0535 -7.701049,3.2783 -8.593749,7.5 -0.028,0.1318 -0.06175,0.2317 -0.09375,0.3437 l 0,7.2188 c 0,1.662 1.337999,2.9999 2.999999,3 l 9.34375,0 c 0.058,-0.017 0.09095,-0.049 0.15625,-0.062 3.3259,-0.7326 -4.14685,-8.8156 3.96875,-8.6563 8.0535,0.1581 3.2783,7.6698 7.5,8.5625 0.1915,0.041 0.3499,0.1078 0.5,0.1563 l 5.90625,0 c 1.662,-1e-4 3,-1.3381 3,-3 l 0,-6.5938 c -0.011,-0.045 -0.02125,-0.077 -0.03125,-0.125 -0.8927,-4.2217 -8.4044,0.5535 -8.5625,-7.5 -0.156,-7.9465 7.58235,-0.9235 8.59375,-3.75 l 0,-9.4062 c 0,-1.6619 -1.338,-2.9999 -3,-3 l -7.96875,0 c -3.776404,-1.139 0.635719,-8.3765 -7.25,-8.5313 z"
       style="fill:#000000;fill-opacity:1;stroke:none;filter:url(#filter4518)" />
    <path
       style="fill:url(#linearGradient4440);fill-opacity:1.0;stroke:none"
       d="m 23.525888,1006.0247 c -7.72162,-0.1514 -1.338466,7.1883 -3.5625,8.5313 l -8.59375,0 c -1.6619997,0 -3.0000997,1.3381 -2.9999997,3 l 0,8.2812 c 0.01,0.034 0.02325,0.058 0.03125,0.094 0.7328,3.3259 8.8155497,-4.1781 8.6562497,3.9375 -0.1581,8.0535 -7.7010497,3.2783 -8.5937497,7.5 -0.028,0.1318 -0.06175,0.2317 -0.09375,0.3437 l 0,7.2188 c 0,1.662 1.338,2.9999 2.9999997,3 l 9.34375,0 c 0.058,-0.017 0.09095,-0.049 0.15625,-0.062 3.3259,-0.7326 -4.14685,-8.8156 3.96875,-8.6563 8.0535,0.1581 3.2783,7.6698 7.5,8.5625 0.1915,0.041 0.3499,0.1078 0.5,0.1563 l 5.90625,0 c 1.662,-10e-5 3,-1.3381 3,-3 l 0,-6.5938 c -0.011,-0.045 -0.02125,-0.077 -0.03125,-0.125 -0.8927,-4.2217 -8.4044,0.5535 -8.5625,-7.5 -0.156,-7.9465 7.58235,-0.9235 8.59375,-3.75 l 0,-9.4062 c 0,-1.6619 -1.338,-2.9999 -3,-3 l -7.96875,0 c -3.776404,-1.139 0.635719,-8.3765 -7.25,-8.5313 z"
       id="rect2816" />
  </g>
</svg>
